<?xml version="1.0" standalone="no"?>
<!DOCTYPE svg PUBLIC "-//W3C//DTD SVG 20010904//EN"
 "http://www.w3.org/TR/2001/REC-SVG-20010904/DTD/svg10.dtd">
<svg version="1.0" xmlns="http://www.w3.org/2000/svg"
 width="500.000000pt" height="500.000000pt" viewBox="0 0 500.000000 500.000000"
 preserveAspectRatio="xMidYMid meet">
<metadata>
Created by potrace 1.16, written by Peter Selinger 2001-2019
</metadata>
<g transform="translate(0.000000,500.000000) scale(0.100000,-0.100000)"
fill="#000000" stroke="none">
<path d="M2790 3162 c0 -79 -146 -897 -166 -927 -9 -14 -37 -40 -62 -57 -126
-87 -313 -77 -377 21 -50 74 -51 212 -4 322 24 54 94 125 134 135 36 9 73 -10
86 -43 12 -31 -2 -99 -27 -138 -45 -68 84 -81 140 -15 30 37 42 106 26 154
-49 151 -314 153 -463 4 -116 -116 -156 -322 -88 -456 25 -49 91 -109 147
-133 128 -57 327 -22 443 77 l41 35 -2 -38 c-2 -57 9 -80 44 -92 35 -12 108
-14 124 -3 6 4 14 41 17 82 11 154 96 358 188 453 50 52 60 58 90 55 31 -3 34
-6 37 -39 2 -19 -8 -103 -23 -186 -31 -186 -31 -226 -2 -283 26 -53 89 -90
152 -90 54 0 131 38 179 87 l39 41 21 -42 c26 -49 90 -86 151 -86 82 0 192 75
236 162 36 71 14 123 -25 57 -26 -43 -93 -89 -131 -89 -74 0 -80 49 -35 305
38 215 38 247 4 274 -19 15 -41 21 -80 21 -72 0 -81 -5 -76 -43 2 -18 -10
-115 -28 -217 -17 -102 -33 -199 -36 -217 -13 -87 -140 -157 -187 -105 -23 25
-21 72 8 246 30 175 31 210 7 256 -67 133 -250 95 -385 -80 -15 -19 -27 -29
-27 -22 0 8 20 131 45 273 25 142 46 280 47 306 1 66 -22 83 -113 83 l-69 0 0
-48z"/>
<path d="M1490 3089 c-140 -24 -282 -136 -353 -280 -62 -126 -80 -211 -81
-384 -1 -135 2 -156 22 -208 36 -88 79 -137 154 -176 207 -106 473 -1 596 236
70 135 87 212 87 398 0 158 0 161 -31 225 -42 89 -75 124 -147 159 -71 35
-159 45 -247 30z m150 -97 c48 -35 74 -106 78 -218 10 -249 -66 -522 -173
-630 -97 -96 -223 -78 -270 38 -52 129 -16 462 69 644 77 164 201 233 296 166z"/>
<path d="M3633 3046 c-82 -37 -79 -155 5 -181 32 -9 87 12 106 40 54 82 -23
179 -111 141z"/>
</g>
</svg>
